<svg width="18" height="18" viewBox="0 0 18 18" fill="none" xmlns="http://www.w3.org/2000/svg">
<path fill-rule="evenodd" clip-rule="evenodd" d="M1.5 9C1.5 4.86 4.86 1.5 9 1.5C13.14 1.5 16.5 4.86 16.5 9C16.5 13.14 13.14 16.5 9 16.5C4.86 16.5 1.5 13.14 1.5 9ZM3.75 9L7.5 12.75L14.25 6L13.1925 4.935L7.5 10.6275L4.8075 7.9425L3.75 9Z"/>
<mask id="mask0_112_4092" style="mask-type:luminance" maskUnits="userSpaceOnUse" x="1" y="1" width="16" height="16">
<path fill-rule="evenodd" clip-rule="evenodd" d="M1.5 9C1.5 4.86 4.86 1.5 9 1.5C13.14 1.5 16.5 4.86 16.5 9C16.5 13.14 13.14 16.5 9 16.5C4.86 16.5 1.5 13.14 1.5 9ZM3.75 9L7.5 12.75L14.25 6L13.1925 4.935L7.5 10.6275L4.8075 7.9425L3.75 9Z"/>
</mask>
<g mask="url(#mask0_112_4092)">
</g>
</svg>
