<svg width="18" height="18" viewBox="0 0 18 18" fill="none" xmlns="http://www.w3.org/2000/svg">
<rect width="18" height="18" fill="white"/>
<g id="MacBook Pro 14&#34; - 32" clip-path="url(#clip0_75_45228)">
<rect width="1920" height="1097" transform="translate(-1492 -427)" fill="#E8E8E8"/>
<g id="Frame 951">
<g id="Frame 929">
<g id="Frame 944">
<g id="Frame 763">
<g id="Frame 945">
<g id="Frame 929_2" clip-path="url(#clip1_75_45228)">
<g id="Frame 928" clip-path="url(#clip2_75_45228)">
<rect width="374" height="1059" transform="translate(-314 -389)" fill="#F5F5F5"/>
<g id="Frame 956">
<g id="Frame 935">
<g id="Frame 955">
<g id="Frame 772">
<g id="Frame 761">
<rect width="374" height="30" transform="translate(-314 -6)" fill="#F5F5F5"/>
<g id="Frame 959">
<g id="_Core">
<g id="Left Button stack">
<g id="Button">
<g id="_Button">
<g id="_Button base">
<g id="icon/roudned/action/assignment_ind_20px" clip-path="url(#clip3_75_45228)">
<g id="Group">
<path id="Vector" d="M14.2792 14.2825H12.0583V10.8017C12.0583 9.97167 12.0417 8.90333 10.9 8.90333C9.7425 8.90333 9.56583 9.80667 9.56583 10.7408V14.2825H7.34417V7.125H9.4775V8.1H9.50667C9.805 7.53833 10.53 6.94417 11.6133 6.94417C13.8633 6.94417 14.28 8.42583 14.28 10.3533V14.2825H14.2792ZM4.83583 6.14583C4.6663 6.14605 4.49838 6.11281 4.34172 6.04801C4.18506 5.9832 4.04272 5.88812 3.92288 5.7682C3.80304 5.64828 3.70804 5.50588 3.64334 5.34918C3.57864 5.19247 3.5455 5.02454 3.54583 4.855C3.546 4.59986 3.62182 4.3505 3.7637 4.13846C3.90558 3.92641 4.10716 3.76119 4.34294 3.66371C4.57872 3.56623 4.83811 3.54085 5.08832 3.59078C5.33852 3.64072 5.5683 3.76373 5.74859 3.94426C5.92888 4.12478 6.0516 4.35472 6.10121 4.60498C6.15082 4.85525 6.12511 5.11461 6.02732 5.35026C5.92953 5.58592 5.76406 5.78728 5.55183 5.92889C5.33959 6.0705 5.09097 6.146 4.83583 6.14583ZM5.94917 14.2825H3.72167V7.125H5.95V14.2825H5.94917ZM15.3917 1.5H2.6075C1.99417 1.5 1.5 1.98333 1.5 2.58083V15.4192C1.5 16.0167 1.995 16.5 2.60667 16.5H15.3883C16 16.5 16.5 16.0167 16.5 15.4192V2.58083C16.5 1.98333 16 1.5 15.3883 1.5H15.3917Z" fill="#0E0E0E" fill-opacity="0.64"/>
</g>
</g>
</g>
</g>
</g>
</g>
</g>
</g>
</g>
</g>
</g>
</g>
</g>
</g>
</g>
</g>
</g>
</g>
</g>
</g>
</g>
<defs>
<clipPath id="clip0_75_45228">
<rect width="1920" height="1097" fill="white" transform="translate(-1492 -427)"/>
</clipPath>
<clipPath id="clip1_75_45228">
<rect width="374" height="1059" fill="white" transform="translate(-314 -389)"/>
</clipPath>
<clipPath id="clip2_75_45228">
<rect width="374" height="1059" fill="white" transform="translate(-314 -389)"/>
</clipPath>
<clipPath id="clip3_75_45228">
<rect width="18" height="18" fill="white"/>
</clipPath>
</defs>
</svg>
