<svg width="91" height="24" viewBox="0 0 91 24" fill="none" xmlns="http://www.w3.org/2000/svg">
<path opacity="0.82" d="M15 4V8M15 20V10M15 8H11V15M15 8V10M15 10H19V17" stroke="#0E0E0E" stroke-opacity="0.64" stroke-width="2"/>
<path d="M24.8587 17V9.90909H26.479V11.0909H26.5529C26.6822 10.6816 26.9038 10.3661 27.2177 10.1445C27.5347 9.91986 27.8963 9.80753 28.3026 9.80753C28.3949 9.80753 28.498 9.81214 28.6119 9.82138C28.7288 9.82753 28.8258 9.8383 28.9027 9.85369V11.391C28.8319 11.3664 28.7196 11.3448 28.5657 11.3263C28.4149 11.3048 28.2687 11.294 28.1271 11.294C27.8224 11.294 27.5485 11.3602 27.3054 11.4925C27.0653 11.6218 26.8761 11.8018 26.7376 12.0327C26.5991 12.2635 26.5298 12.5297 26.5298 12.8313V17H24.8587ZM32.9902 17.1385C32.2792 17.1385 31.6652 16.9908 31.1482 16.6953C30.6342 16.3968 30.2388 15.9751 29.9618 15.4304C29.6848 14.8826 29.5463 14.2378 29.5463 13.4961C29.5463 12.7667 29.6848 12.1265 29.9618 11.5756C30.2418 11.0217 30.6327 10.5908 31.1344 10.283C31.636 9.97218 32.2254 9.81676 32.9025 9.81676C33.3395 9.81676 33.7519 9.88755 34.1397 10.0291C34.5305 10.1676 34.8752 10.383 35.1738 10.6754C35.4754 10.9678 35.7124 11.3402 35.8847 11.7926C36.0571 12.242 36.1432 12.7775 36.1432 13.3991V13.9116H30.3311V12.7852H34.5413C34.5382 12.4651 34.469 12.1804 34.3336 11.9311C34.1982 11.6787 34.0089 11.4802 33.7657 11.3356C33.5257 11.1909 33.2456 11.1186 32.9255 11.1186C32.5839 11.1186 32.2839 11.2017 32.0253 11.3679C31.7668 11.531 31.5652 11.7464 31.4206 12.0142C31.279 12.2789 31.2067 12.5697 31.2036 12.8867V13.87C31.2036 14.2824 31.279 14.6364 31.4298 14.9318C31.5806 15.2242 31.7914 15.4489 32.0623 15.6058C32.3331 15.7597 32.6501 15.8366 33.0133 15.8366C33.2564 15.8366 33.4764 15.8028 33.6734 15.7351C33.8704 15.6643 34.0412 15.5612 34.1858 15.4258C34.3305 15.2904 34.4397 15.1226 34.5136 14.9226L36.074 15.098C35.9755 15.5104 35.7878 15.8705 35.5108 16.1783C35.2369 16.483 34.886 16.7199 34.4582 16.8892C34.0304 17.0554 33.5411 17.1385 32.9902 17.1385ZM40.7801 17.1385C40.0722 17.1385 39.4644 16.9831 38.9566 16.6722C38.4518 16.3614 38.0625 15.9321 37.7886 15.3842C37.5178 14.8333 37.3823 14.1993 37.3823 13.4822C37.3823 12.7621 37.5208 12.1265 37.7978 11.5756C38.0748 11.0217 38.4657 10.5908 38.9704 10.283C39.4782 9.97218 40.0784 9.81676 40.7708 9.81676C41.3464 9.81676 41.8557 9.92294 42.2989 10.1353C42.7451 10.3446 43.1006 10.6416 43.3653 11.0263C43.63 11.4079 43.7808 11.8542 43.8177 12.3651H42.2204C42.1558 12.0234 42.0019 11.7388 41.7588 11.511C41.5187 11.2802 41.1971 11.1648 40.7939 11.1648C40.4523 11.1648 40.1522 11.2571 39.8937 11.4418C39.6352 11.6233 39.4336 11.8849 39.2889 12.2266C39.1474 12.5682 39.0766 12.9775 39.0766 13.4545C39.0766 13.9377 39.1474 14.3532 39.2889 14.701C39.4305 15.0457 39.629 15.3119 39.8845 15.4996C40.143 15.6843 40.4461 15.7766 40.7939 15.7766C41.0401 15.7766 41.2602 15.7305 41.4541 15.6381C41.651 15.5427 41.8157 15.4058 41.948 15.2273C42.0804 15.0488 42.1712 14.8318 42.2204 14.5763H43.8177C43.7777 15.078 43.63 15.5227 43.3745 15.9105C43.1191 16.2952 42.7713 16.5968 42.3312 16.8153C41.8911 17.0308 41.3741 17.1385 40.7801 17.1385ZM47.3604 17.1431C46.9111 17.1431 46.5064 17.0631 46.1463 16.9031C45.7893 16.7399 45.5062 16.4999 45.2969 16.1829C45.0907 15.8659 44.9876 15.475 44.9876 15.0103C44.9876 14.6102 45.0614 14.2794 45.2092 14.0178C45.3569 13.7562 45.5585 13.5469 45.8139 13.3899C46.0694 13.233 46.3571 13.1145 46.6772 13.0344C47.0004 12.9513 47.3343 12.8913 47.679 12.8544C48.0945 12.8113 48.4315 12.7728 48.69 12.739C48.9485 12.7021 49.1362 12.6467 49.2532 12.5728C49.3732 12.4959 49.4332 12.3774 49.4332 12.2173V12.1896C49.4332 11.8419 49.3301 11.5726 49.1239 11.3817C48.9177 11.1909 48.6207 11.0955 48.233 11.0955C47.8236 11.0955 47.4989 11.1848 47.2589 11.3633C47.0219 11.5418 46.8619 11.7526 46.7788 11.9957L45.2184 11.7741C45.3415 11.3433 45.5446 10.9832 45.8278 10.6939C46.1109 10.4015 46.4571 10.183 46.8665 10.0384C47.2758 9.89062 47.7282 9.81676 48.2237 9.81676C48.5653 9.81676 48.9054 9.85677 49.244 9.93679C49.5825 10.0168 49.8918 10.1491 50.1719 10.3338C50.4519 10.5154 50.6766 10.7631 50.8459 11.0771C51.0182 11.391 51.1044 11.7834 51.1044 12.2543V17H49.4979V16.0259H49.4425C49.3409 16.2229 49.1978 16.4076 49.0131 16.5799C48.8316 16.7492 48.6023 16.8861 48.3253 16.9908C48.0514 17.0923 47.7298 17.1431 47.3604 17.1431ZM47.7944 15.9151C48.1298 15.9151 48.4207 15.849 48.6669 15.7166C48.9131 15.5812 49.1024 15.4027 49.2347 15.1811C49.3701 14.9595 49.4379 14.7179 49.4379 14.4563V13.6207C49.3855 13.6638 49.2963 13.7038 49.1701 13.7408C49.047 13.7777 48.9085 13.81 48.7546 13.8377C48.6007 13.8654 48.4484 13.89 48.2976 13.9116C48.1468 13.9331 48.016 13.9516 47.9052 13.967C47.6559 14.0008 47.4328 14.0562 47.2358 14.1332C47.0388 14.2101 46.8834 14.3178 46.7695 14.4563C46.6557 14.5917 46.5987 14.7672 46.5987 14.9826C46.5987 15.2904 46.7111 15.5227 46.9357 15.6797C47.1604 15.8366 47.4466 15.9151 47.7944 15.9151ZM56.0078 17.1385C55.3 17.1385 54.6921 16.9831 54.1843 16.6722C53.6796 16.3614 53.2903 15.9321 53.0164 15.3842C52.7455 14.8333 52.6101 14.1993 52.6101 13.4822C52.6101 12.7621 52.7486 12.1265 53.0256 11.5756C53.3026 11.0217 53.6934 10.5908 54.1982 10.283C54.706 9.97218 55.3061 9.81676 55.9986 9.81676C56.5741 9.81676 57.0835 9.92294 57.5267 10.1353C57.9729 10.3446 58.3284 10.6416 58.5931 11.0263C58.8577 11.4079 59.0085 11.8542 59.0455 12.3651H57.4482C57.3835 12.0234 57.2297 11.7388 56.9865 11.511C56.7465 11.2802 56.4249 11.1648 56.0217 11.1648C55.6801 11.1648 55.38 11.2571 55.1215 11.4418C54.863 11.6233 54.6614 11.8849 54.5167 12.2266C54.3751 12.5682 54.3044 12.9775 54.3044 13.4545C54.3044 13.9377 54.3751 14.3532 54.5167 14.701C54.6583 15.0457 54.8568 15.3119 55.1122 15.4996C55.3708 15.6843 55.6739 15.7766 56.0217 15.7766C56.2679 15.7766 56.488 15.7305 56.6818 15.6381C56.8788 15.5427 57.0435 15.4058 57.1758 15.2273C57.3081 15.0488 57.3989 14.8318 57.4482 14.5763H59.0455C59.0055 15.078 58.8577 15.5227 58.6023 15.9105C58.3469 16.2952 57.9991 16.5968 57.559 16.8153C57.1189 17.0308 56.6018 17.1385 56.0078 17.1385ZM64.0886 9.90909V11.2017H60.0122V9.90909H64.0886ZM61.0186 8.21023H62.6898V14.8672C62.6898 15.0919 62.7236 15.2642 62.7913 15.3842C62.8621 15.5012 62.9545 15.5812 63.0683 15.6243C63.1822 15.6674 63.3084 15.6889 63.4469 15.6889C63.5515 15.6889 63.6469 15.6812 63.7331 15.6658C63.8224 15.6504 63.8901 15.6366 63.9362 15.6243L64.2178 16.9308C64.1286 16.9615 64.0009 16.9954 63.8347 17.0323C63.6715 17.0692 63.4715 17.0908 63.2345 17.0969C62.816 17.1093 62.4389 17.0462 62.1035 16.9077C61.768 16.7661 61.5018 16.5476 61.3048 16.2521C61.1109 15.9567 61.0155 15.5874 61.0186 15.1442V8.21023ZM70.1357 14.0178V9.90909H71.8069V17H70.1865V15.7397H70.1127C69.9526 16.1367 69.6895 16.4614 69.3232 16.7138C68.9601 16.9661 68.5123 17.0923 67.9798 17.0923C67.5151 17.0923 67.1042 16.9892 66.7472 16.783C66.3933 16.5737 66.1163 16.2706 65.9163 15.8736C65.7162 15.4735 65.6162 14.9903 65.6162 14.424V9.90909H67.2874V14.1655C67.2874 14.6148 67.4105 14.9718 67.6567 15.2365C67.9029 15.5012 68.2261 15.6335 68.6261 15.6335C68.8724 15.6335 69.1109 15.5735 69.3417 15.4535C69.5725 15.3335 69.7618 15.1549 69.9095 14.918C70.0603 14.6779 70.1357 14.3778 70.1357 14.0178ZM79.2598 11.7834L77.7363 11.9496C77.6933 11.7957 77.6179 11.651 77.5101 11.5156C77.4055 11.3802 77.2639 11.271 77.0854 11.1879C76.9069 11.1048 76.6884 11.0632 76.4299 11.0632C76.0821 11.0632 75.7897 11.1386 75.5528 11.2894C75.3189 11.4402 75.2034 11.6357 75.2065 11.8757C75.2034 12.0819 75.2788 12.2496 75.4327 12.3789C75.5897 12.5082 75.8482 12.6143 76.2083 12.6974L77.4178 12.956C78.0887 13.1006 78.5873 13.3299 78.9136 13.6438C79.2429 13.9577 79.4091 14.3686 79.4121 14.8764C79.4091 15.3227 79.2783 15.7166 79.0197 16.0582C78.7643 16.3968 78.4088 16.6615 77.9533 16.8523C77.4978 17.0431 76.9746 17.1385 76.3837 17.1385C75.5158 17.1385 74.8172 16.9569 74.2878 16.5938C73.7585 16.2275 73.443 15.7182 73.3415 15.0657L74.9711 14.9087C75.0449 15.2288 75.2019 15.4704 75.442 15.6335C75.682 15.7966 75.9944 15.8782 76.3791 15.8782C76.7761 15.8782 77.0947 15.7966 77.3347 15.6335C77.5779 15.4704 77.6994 15.2688 77.6994 15.0288C77.6994 14.8256 77.6209 14.6579 77.464 14.5256C77.3101 14.3932 77.07 14.2917 76.7438 14.2209L75.5343 13.967C74.8541 13.8254 74.3509 13.5869 74.0247 13.2514C73.6985 12.9129 73.5369 12.4851 73.54 11.968C73.5369 11.531 73.6554 11.1525 73.8954 10.8324C74.1386 10.5092 74.4756 10.2599 74.9064 10.0845C75.3404 9.90601 75.8405 9.81676 76.4068 9.81676C77.2378 9.81676 77.8918 9.99373 78.3688 10.3477C78.8489 10.7016 79.1459 11.1802 79.2598 11.7834Z" fill="#0E0E0E" fill-opacity="0.64"/>
</svg>
