<svg width="18" height="18" viewBox="0 0 18 18" fill="none" xmlns="http://www.w3.org/2000/svg">
<path fill-rule="evenodd" clip-rule="evenodd" d="M11.0325 10.5H11.625L15.3675 14.25L14.25 15.3675L10.5 11.625V11.0325L10.2975 10.8225C9.4425 11.5575 8.3325 12 7.125 12C4.4325 12 2.25 9.8175 2.25 7.125C2.25 4.4325 4.4325 2.25 7.125 2.25C9.8175 2.25 12 4.4325 12 7.125C12 8.3325 11.5575 9.4425 10.8225 10.2975L11.0325 10.5ZM3.75 7.125C3.75 8.9925 5.2575 10.5 7.125 10.5C8.9925 10.5 10.5 8.9925 10.5 7.125C10.5 5.2575 8.9925 3.75 7.125 3.75C5.2575 3.75 3.75 5.2575 3.75 7.125Z" fill="#0E0E0E" fill-opacity="0.64"/>
<mask id="mask0_511_13493" style="mask-type:luminance" maskUnits="userSpaceOnUse" x="2" y="2" width="14" height="14">
<path fill-rule="evenodd" clip-rule="evenodd" d="M11.0325 10.5H11.625L15.3675 14.25L14.25 15.3675L10.5 11.625V11.0325L10.2975 10.8225C9.4425 11.5575 8.3325 12 7.125 12C4.4325 12 2.25 9.8175 2.25 7.125C2.25 4.4325 4.4325 2.25 7.125 2.25C9.8175 2.25 12 4.4325 12 7.125C12 8.3325 11.5575 9.4425 10.8225 10.2975L11.0325 10.5ZM3.75 7.125C3.75 8.9925 5.2575 10.5 7.125 10.5C8.9925 10.5 10.5 8.9925 10.5 7.125C10.5 5.2575 8.9925 3.75 7.125 3.75C5.2575 3.75 3.75 5.2575 3.75 7.125Z" fill="white"/>
</mask>
<g mask="url(#mask0_511_13493)">
</g>
</svg>
