<svg width="18" height="18" viewBox="0 0 18 18" fill="none" xmlns="http://www.w3.org/2000/svg">
<g id="icon/roudned/action/assignment_ind_20px">
<path id="Vector" d="M17.1578 3.79569C17.0524 3.68223 16.8839 3.65336 16.7462 3.72519C16.6482 3.77689 16.4569 3.8447 16.233 3.91049C16.5018 3.55802 16.7197 3.15721 16.8134 2.79803C16.8499 2.65838 16.7949 2.51068 16.6761 2.42844C16.5562 2.34619 16.3988 2.34754 16.2816 2.43112C16.0799 2.5748 15.1453 2.9887 14.5424 3.1223C13.7771 2.43414 13.0154 2.12531 12.0939 2.12531C11.4031 2.12531 10.7633 2.32236 10.0191 2.76379C8.72197 3.53385 8.4974 5.19819 8.5934 6.21867C5.07239 5.88366 3.09721 3.83496 2.39529 2.94338C2.32513 2.85409 2.21368 2.81179 2.10123 2.81313C1.98777 2.82119 1.88538 2.88464 1.82832 2.98299C0.98843 4.42174 1.33217 5.90246 1.97736 6.89911C1.87162 6.82694 1.76386 6.74604 1.65678 6.65741C1.55373 6.57282 1.41139 6.55402 1.29122 6.61143C1.17071 6.66782 1.09384 6.789 1.09384 6.92227C1.09384 8.43286 1.97837 9.51209 2.84175 10.1254C2.75716 10.1026 2.66686 10.0764 2.57119 10.0465C2.44195 10.0072 2.30163 10.0448 2.21201 10.1462C2.12238 10.2472 2.09989 10.3913 2.1546 10.5145C2.70681 11.7551 3.80484 12.6806 5.03479 13.0022C3.97738 13.6467 2.51379 13.9771 1.13378 13.8146C0.972988 13.7928 0.818237 13.8931 0.767212 14.0486C0.716188 14.2036 0.781647 14.3735 0.923306 14.4544C2.5967 15.4101 4.33522 15.8747 6.23823 15.8747H6.25031C8.84987 15.8723 11.291 14.7414 13.1238 12.6904C14.8929 10.7108 15.8207 8.17606 15.6304 5.86822C16.0853 5.5285 16.7731 4.89372 17.1977 4.21127C17.28 4.07968 17.2635 3.90915 17.1578 3.79569Z" fill="#0E0E0E" fill-opacity="0.64"/>
</g>
</svg>
